# xmcd CD database file
#
# Track frame offsets:
#	150
#	25646
#	46529
#	70270
#	90270
#	116979
#	146962
#	170662
#	192675
#	216317
#	240949
#	266486
#
# Disc length: 3874 seconds
#
# Revision: 0
# Processed by: cddbd v1.5.2PL0 Copyright (c) Steve Scherf et al.
# Submitted via: CDex 1.51
#
DISCID=aa0f200c
DTITLE=Strunz and Farah - Jungle Guitars
DYEAR=2006
DGENRE=Jazz
TTITLE0=Aracari
TTITLE1=Bribri
TTITLE2=Tierra Mojada
TTITLE3=Caracol
TTITLE4=Anaconda
TTITLE5=Amazonas
TTITLE6=Vela al Viento
TTITLE7=El Jaguar
TTITLE8=Canto al Sol
TTITLE9=Campera
TTITLE10=Selva
TTITLE11=Zona Tórrida
EXTD=YEAR: 2006
EXTT0=
EXTT1=
EXTT2=
EXTT3=
EXTT4=
EXTT5=
EXTT6=
EXTT7=
EXTT8=
EXTT9=
EXTT10=
EXTT11=
PLAYORDER=
